<svg width="175" height="37" viewBox="0 0 175 37" fill="none" xmlns="http://www.w3.org/2000/svg">
<path fill-rule="evenodd" clip-rule="evenodd" d="M17.7538 0H18.773C19.5689 0 20.2104 0.647325 20.2104 1.44624V35.5497C20.2104 36.3527 19.5648 37 18.773 37H17.7538C16.958 37 16.3164 36.3486 16.3164 35.5497V1.45034C16.3164 0.647325 16.962 0 17.7538 0ZM126.077 10.1525C125.208 9.3372 124.278 8.80459 122.816 8.80459C120.827 8.80459 119.738 10.087 119.738 12.2543V12.8688H126.605V16.003H119.738V25.9792H116.137V12.2502C116.137 8.36621 118.869 5.3877 122.751 5.3877C124.863 5.3877 126.511 6.203 128.002 7.61237L126.077 10.1525ZM132.875 5.41992H129.273V25.9787H132.875V5.41992ZM48.7425 7.81717H52.5878V22.3533H60.6438V25.9792H52.5878H48.7425V22.3533V7.81717ZM69.9422 10.8735C65.4391 10.8735 61.9918 14.3231 61.9918 18.7397C61.9918 23.2833 65.2239 26.6059 70.4417 26.6059C72.7399 26.6059 75.1032 25.6636 76.6543 24.3813L75.0382 21.6527C74.1368 22.4065 72.3339 23.189 70.5351 23.189C68.0906 23.189 66.3649 22.0132 65.7965 20.1491H77.5841V18.7397C77.5841 14.319 74.4169 10.8735 69.9422 10.8735ZM69.9422 14.1634C72.0294 14.1634 73.3937 15.3597 73.8769 17.1706H65.8127C66.3406 15.3433 67.8308 14.1634 69.9422 14.1634ZM88.6126 10.935C85.4454 10.935 81.8722 12.3156 80.1952 14.0692V25.9464H83.7969V15.6793C84.9582 14.864 86.3834 14.4133 87.8655 14.4133C89.8551 14.4133 90.9393 15.4785 90.9393 17.5147V25.9464H94.545V16.5765C94.545 12.9712 92.3727 10.935 88.6126 10.935ZM143.872 10.9963C139.336 10.9963 135.828 14.446 135.828 18.8625C135.828 23.2832 139.336 26.7288 143.872 26.7288C148.408 26.7288 151.916 23.2791 151.916 18.8625C151.92 14.446 148.408 10.9963 143.872 10.9963ZM143.872 23.2504C141.419 23.2504 139.523 21.3371 139.523 18.8625C139.523 16.3879 141.419 14.4746 143.872 14.4746C146.325 14.4746 148.221 16.3879 148.221 18.8625C148.221 21.3412 146.329 23.2504 143.872 23.2504ZM168.288 19.9524L171.24 11.3119H175L169.717 26.1061H167.204L163.675 16.6339L160.151 26.1061H157.633L152.355 11.3119H156.115L159.067 19.9524L162.201 11.3119H165.153L168.288 19.9524ZM109.175 12.1147C108.005 11.4059 106.515 10.902 104.546 10.902C100.258 10.902 97.0908 14.3189 97.0908 18.7396C97.0908 23.1602 100.29 26.5771 104.578 26.5771C108.026 26.5771 111.104 25.2292 112.781 23.4757V5.42022H109.179V12.1147H109.175ZM100.79 18.7396C100.79 16.265 102.654 14.3517 105.265 14.3517C106.929 14.3517 108.18 14.8638 109.179 15.7201V21.9024C108.127 22.6891 106.881 23.1315 105.265 23.1315C102.654 23.1275 100.79 21.2142 100.79 18.7396ZM26.7457 7.81738H25.7265C24.9347 7.81738 24.2891 8.46471 24.2891 9.26772V27.6469C24.2891 28.4458 24.9306 29.0972 25.7265 29.0972H26.7457C27.5375 29.0972 28.1831 28.4499 28.1831 27.6469V9.26362C28.179 8.46471 27.5375 7.81738 26.7457 7.81738ZM9.80071 7.81738H10.8199C11.6117 7.81738 12.2573 8.46471 12.2573 9.26362V27.6469C12.2573 28.4499 11.6117 29.0972 10.8199 29.0972H9.80071C9.00484 29.0972 8.36328 28.4458 8.36328 27.6469V9.26772C8.36328 8.46471 9.00891 7.81738 9.80071 7.81738ZM33.8972 21.1855C35.3594 21.1855 36.5447 19.9896 36.5447 18.5143C36.5447 17.039 35.3594 15.8431 33.8972 15.8431C32.4351 15.8431 31.2498 17.039 31.2498 18.5143C31.2498 19.9896 32.4351 21.1855 33.8972 21.1855ZM5.29491 18.5143C5.29491 19.9896 4.1096 21.1855 2.64745 21.1855C1.18531 21.1855 0 19.9896 0 18.5143C0 17.039 1.18531 15.8431 2.64745 15.8431C4.1096 15.8431 5.29491 17.039 5.29491 18.5143Z" fill="#F59D1B"/>
</svg>
