<?xml version="1.0" standalone="no"?>
<!DOCTYPE svg PUBLIC "-//W3C//DTD SVG 20010904//EN"
 "http://www.w3.org/TR/2001/REC-SVG-20010904/DTD/svg10.dtd">
<svg version="1.0" xmlns="http://www.w3.org/2000/svg"
 width="534.000000pt" height="534.000000pt" viewBox="0 0 534.000000 534.000000"
 preserveAspectRatio="xMidYMid meet">
<metadata>
Created by potrace 1.11, written by Peter Selinger 2001-2013
</metadata>
<g transform="translate(0.000000,534.000000) scale(0.100000,-0.100000)"
fill="#000000" stroke="none">
<path d="M2509 5317 c-50 -27 -97 -87 -107 -138 -4 -19 -7 -1154 -7 -2524 l1
-2490 22 -46 c24 -53 72 -93 128 -108 21 -6 86 -9 144 -8 94 2 110 5 152 29
35 21 53 41 72 81 l26 53 0 2498 c0 1887 -3 2507 -11 2537 -16 50 -79 115
-127 129 -20 5 -85 10 -143 10 -92 0 -112 -3 -150 -23z"/>
<path d="M1525 4210 c-135 -6 -169 -23 -220 -111 -20 -33 -20 -54 -22 -1399
-1 -922 1 -1378 9 -1406 12 -50 56 -106 101 -130 49 -26 258 -29 313 -5 53 24
100 82 113 140 7 31 10 492 8 1401 l-2 1355 -23 45 c-24 50 -78 93 -132 106
-19 5 -85 7 -145 4z"/>
<path d="M3705 4209 c-66 -9 -94 -21 -129 -55 -65 -65 -61 40 -63 -1469 -1
-1341 -1 -1371 18 -1415 45 -102 87 -124 244 -126 133 -3 169 7 222 58 66 64
63 -20 63 1482 -1 1295 -1 1363 -19 1401 -22 50 -75 102 -115 114 -40 13 -158
18 -221 10z"/>
<path d="M409 3045 c-281 -58 -393 -411 -203 -634 216 -252 620 -104 642 234
10 169 -72 307 -223 376 -71 32 -140 40 -216 24z"/>
<path d="M4810 3048 c-72 -9 -116 -28 -177 -76 -183 -145 -192 -432 -18 -590
73 -67 146 -95 245 -95 126 0 229 55 302 160 76 111 88 263 30 386 -71 152
-221 237 -382 215z"/>
</g>
</svg>
