<svg fill="none" height="9" viewBox="0 0 10 9" width="10" xmlns="http://www.w3.org/2000/svg"><path d="m.156755 4.98283c-.1131493.13179-.1682067.29956-.15476746.47297.01343916.17341.09320736.33121.22543146.44393l3.209371 2.75113c.11922.10188.26705.15651.42225.15651.01907 0 .03858-.00087.05809-.00261.17558-.0156.33381-.09927.44566-.23497l5.48926-6.68101c.11012-.13439.16175-.30347.1448-.47644-.01734-.17298-.10014-.32905-.23453-.439596l-1.00491-.825427c-.27702-.227166-.68713-.187282-.91517.089739l-4.22467 5.142014-1.69768-1.45447c-.27225-.23237-.68323-.20159-.9169.07066z" fill="#fff"/></svg>