<svg fill="none" height="14" viewBox="0 0 16 14" width="16" xmlns="http://www.w3.org/2000/svg"><g fill="#c2c6cd"><path d="m16 7.00001c-1.1672-3.49324-4.3034-6.000018-7.99999-6.000018-1.32325 0-2.57124.326608-3.68525.900678l-1.90071-1.90067-1.41405 1.41405 12.5859 12.58595 1.4141-1.4141-1.6294-1.6293c1.1865-1.03069 2.1068-2.39261 2.6293-3.95665zm-7.99999-4c2.20919 0 3.99999 1.79084 3.99999 4 0 .74169-.2104 1.42882-.565 2.02093l-1.50344-1.50343c.04457-.16486.06843-.33825.06843-.51753 0-1.10461-.89543-1.99999-1.99998-1.99999-.1787 0-.35016.02697-.51465.07129l-1.49403-1.49403c.59124-.35386 1.26813-.57724 2.00868-.57724z"/><path d="m8 10.9999c-2.20916 0-4-1.79091-4-4.00004 0-.35597.06135-.69477.14862-1.02324l-2.23541-2.23541c-.84032.9202-1.501352 2.02599-1.91321 3.25865 1.16717 3.49324 4.30342 5.99994 8 5.99994.94581 0 1.854-.1662 2.7029-.4689l-1.67963-1.6797c-.3285.0873-.66734.1487-1.02327.1487z"/></g></svg>