<svg fill="none" height="121" viewBox="0 0 138 121" width="138" xmlns="http://www.w3.org/2000/svg"><path d="m126.165 0 11.21 11.2733c-7.18 7.1815-13.042 14.1125-17.585 20.793-4.396 6.5134-7.18 11.4403-8.352 14.7805s-2.272 7.3485-3.297 12.0248l.879 1.5031c9.818 0 16.998 2.4217 21.541 7.2651 4.543 4.8433 6.814 12.3588 6.814 22.5465 0 7.8496-2.491 14.9477-7.473 21.2937-4.836 6.347-10.917 9.52-18.244 9.52-8.353 0-15.3136-2.672-20.882-8.017-5.5685-5.344-8.3527-13.945-8.3527-25.8029 0-15.6991 4.2496-31.8992 12.7488-48.6004 8.6459-16.8682 18.9769-29.72808 30.9929-38.5797zm-81.5485 0 11.2102 11.2733c-7.1804 7.1815-12.9686 14.029-17.3647 20.5424-4.3962 6.5135-7.2537 11.5238-8.5725 15.0311-1.1723 3.5072-2.2713 7.5155-3.2971 12.0248l.8792 1.5031c9.8181 0 16.9984 2.4217 21.5411 7.2651 4.5427 4.8433 6.814 12.3588 6.814 22.5465 0 7.8496-2.4912 14.9477-7.4734 21.2937-4.8358 6.347-10.9171 9.52-18.244 9.52-8.3527 0-15.3132-2.672-20.88164-8.017-5.56844-5.344-8.35266-13.945-8.35266-25.8029 0-15.6991 4.2496-31.8992 12.7488-48.6004 8.6457-16.8682 18.9766-29.72808 30.9927-38.5797z" fill="#fff" opacity=".2"/></svg>