<svg fill="none" height="29" viewBox="0 0 31 29" width="31" xmlns="http://www.w3.org/2000/svg"><path d="m23.8971 13.0347c0 5.8583-4.738 10.6002-10.5736 10.6002-5.83558 0-10.5735-4.7419-10.5735-10.6002 0-5.85827 4.73792-10.60013 10.5735-10.60013 5.8356 0 10.5736 4.74186 10.5736 10.60013z" stroke="#fff" stroke-width="4"/><path d="m12.8091 19.1479h1.0686l.009-1.0481c1.9605-.1497 3.097-1.1933 3.1015-2.7677-.0045-1.5472-1.1682-2.3685-2.78-2.7315l-.2671-.0635.0181-2.2686c.6021.1406.9689.5263 1.0232 1.098h1.879c-.0226-1.50186-1.141-2.5772-2.8841-2.76777l.009-1.06626h-1.0685l-.0091 1.05719c-1.7703.17242-3.01994 1.24322-3.01088 2.79044-.00453 1.3703.95988 2.1552 2.52648 2.5318l.4346.1089-.0226 2.4002c-.738-.1406-1.2361-.5944-1.2859-1.3521h-1.89708c.04528 1.8331 1.24508 2.8585 3.16488 3.0264zm1.0957-2.7269.0181-2.1189c.7018.2223 1.0822.5082 1.0867 1.0254-.0045.549-.4211.9574-1.1048 1.0935zm-1.0323-4.1607c-.5659-.1951-.9734-.49-.9644-1.0118 0-.4855.3441-.8621.9825-.9937z" fill="#9eb9f0"/><path d="m2-2h7.92369" stroke="#fff" stroke-linecap="round" stroke-linejoin="round" stroke-width="4" transform="matrix(.7733 .63404 -.632435 .774613 20.0293 21.4351)"/></svg>