<svg width="10" height="9" viewBox="0 0 10 9" fill="none" xmlns="http://www.w3.org/2000/svg">
<path d="M0.156755 4.98283C0.0436057 5.11462 -0.0114517 5.28239 0.00198754 5.4558C0.0154267 5.62921 0.0951949 5.78701 0.227419 5.89973L3.43679 8.65086C3.55601 8.75274 3.70384 8.80737 3.85904 8.80737C3.87811 8.80737 3.89762 8.8065 3.91713 8.80476C4.09271 8.78916 4.25094 8.70549 4.36279 8.56979L9.85205 1.88878C9.96217 1.75439 10.0138 1.58531 9.99685 1.41234C9.97951 1.23936 9.89671 1.08329 9.76232 0.972744L8.75741 0.147317C8.48039 -0.079849 8.07028 -0.039965 7.84224 0.237056L3.61757 5.37907L1.91989 3.9246C1.64764 3.69223 1.23666 3.72301 1.00299 3.99526L0.156755 4.98283Z" fill="white"/>
</svg>
