<svg fill="none" height="185" viewBox="0 0 312 185" width="312" xmlns="http://www.w3.org/2000/svg" xmlns:xlink="http://www.w3.org/1999/xlink"><filter id="a" color-interpolation-filters="sRGB" filterUnits="userSpaceOnUse" height="146.552" width="146.552" x=".413574" y="0"><feFlood flood-opacity="0" result="BackgroundImageFix"/><feColorMatrix in="SourceAlpha" type="matrix" values="0 0 0 0 0 0 0 0 0 0 0 0 0 0 0 0 0 0 127 0"/><feOffset dx="15" dy="25"/><feGaussianBlur stdDeviation="25"/><feColorMatrix type="matrix" values="0 0 0 0 0.0247396 0 0 0 0 0.11523 0 0 0 0 0.3125 0 0 0 0.15 0"/><feBlend in2="BackgroundImageFix" mode="normal" result="effect1_dropShadow"/><feBlend in="SourceGraphic" in2="effect1_dropShadow" mode="normal" result="shape"/></filter><filter id="b" color-interpolation-filters="sRGB" filterUnits="userSpaceOnUse" height="140.034" width="140.034" x="171.517" y="44.6897"><feFlood flood-opacity="0" result="BackgroundImageFix"/><feColorMatrix in="SourceAlpha" type="matrix" values="0 0 0 0 0 0 0 0 0 0 0 0 0 0 0 0 0 0 127 0"/><feOffset dx="-15" dy="25"/><feGaussianBlur stdDeviation="25"/><feColorMatrix type="matrix" values="0 0 0 0 0.0247396 0 0 0 0 0.11523 0 0 0 0 0.3125 0 0 0 0.15 0"/><feBlend in2="BackgroundImageFix" mode="normal" result="effect1_dropShadow"/><feBlend in="SourceGraphic" in2="effect1_dropShadow" mode="normal" result="shape"/></filter><filter id="c" color-interpolation-filters="sRGB" filterUnits="userSpaceOnUse" height="127.931" width="127.931" x="96.1035" y="4.65527"><feFlood flood-opacity="0" result="BackgroundImageFix"/><feColorMatrix in="SourceAlpha" type="matrix" values="0 0 0 0 0 0 0 0 0 0 0 0 0 0 0 0 0 0 127 0"/><feOffset dx="-15" dy="25"/><feGaussianBlur stdDeviation="25"/><feColorMatrix type="matrix" values="0 0 0 0 0.0247396 0 0 0 0 0.11523 0 0 0 0 0.3125 0 0 0 0.15 0"/><feBlend in2="BackgroundImageFix" mode="normal" result="effect1_dropShadow"/><feBlend in="SourceGraphic" in2="effect1_dropShadow" mode="normal" result="shape"/></filter><filter id="d" color-interpolation-filters="sRGB" filterUnits="userSpaceOnUse" height="134.448" width="134.448" x="59.8965" y="50.1724"><feFlood flood-opacity="0" result="BackgroundImageFix"/><feColorMatrix in="SourceAlpha" type="matrix" values="0 0 0 0 0 0 0 0 0 0 0 0 0 0 0 0 0 0 127 0"/><feOffset dy="10"/><feGaussianBlur stdDeviation="25"/><feColorMatrix type="matrix" values="0 0 0 0 0.0247396 0 0 0 0 0.11523 0 0 0 0 0.3125 0 0 0 0.25 0"/><feBlend in2="BackgroundImageFix" mode="normal" result="effect1_dropShadow"/><feBlend in="SourceGraphic" in2="effect1_dropShadow" mode="normal" result="shape"/></filter><linearGradient id="e" gradientUnits="userSpaceOnUse" x1="149" x2="149" y1="49.2681" y2="154.365"><stop offset="0" stop-color="#fff"/><stop offset="1" stop-color="#f1f5fd"/></linearGradient><linearGradient id="f"><stop offset="0" stop-color="#e0e6f5"/><stop offset="1" stop-color="#f1f5fd"/></linearGradient><linearGradient id="g" gradientUnits="userSpaceOnUse" x1="51.2412" x2="51.2412" xlink:href="#f" y1="60.3794" y2="154.414"/><linearGradient id="h" gradientUnits="userSpaceOnUse" x1="179.259" x2="179.259" xlink:href="#f" y1="95.7585" y2="154.414"/><mask id="i" height="47" maskUnits="userSpaceOnUse" width="47" x="35" y="25"><circle cx="58.6894" cy="48.2759" fill="#3769d6" r="23.2759"/></mask><path d="m14 53.2681c0-2.2092 1.7909-4 4-4h262c2.209 0 4 1.7908 4 4v101.0969h-270z" fill="url(#e)"/><rect fill="url(#g)" height="94.0345" rx="4" width="46.5517" x="27.9653" y="60.3794"/><rect fill="#e5ecf9" height="25.1379" rx="4" width="180.621" x="88.4829" y="60.3794"/><rect fill="url(#h)" height="58.6552" rx="4" width="181.552" x="88.4829" y="95.7585"/><g filter="url(#a)"><circle cx="58.6894" cy="48.2759" fill="#3769d6" r="23.2759"/></g><g mask="url(#i)"><rect fill="#edf4fe" height="14.8966" rx="2" width="15.8276" x="32.6206" y="33.3794"/><rect fill="#3769d6" height="3.72414" rx="1" width="12.1034" x="34.4829" y="38.0344"/><rect fill="#3769d6" height="2.7931" rx="1" width="2.7931" x="34.4829" y="43.6206"/><rect fill="#92afea" height="2.7931" rx="1" width="2.7931" x="38.207" y="43.6206"/><rect fill="#3769d6" height="2.7931" rx="1" width="2.7931" x="42.8623" y="43.6206"/><path d="m32.6206 35.3794c0-1.1046.8954-2 2-2h11.8276c1.1046 0 2 .8954 2 2v.7931h-15.8276z" fill="#92afea"/><rect fill="#edf4fe" height="19.5517" rx="2" width="13.9655" x="69.8618" y="48.2759"/><rect fill="#92afea" height="1.86207" rx=".931035" width="9.31034" x="72.6548" y="51.0688"/><rect fill="#92afea" height="1.86207" rx=".931035" width="9.31034" x="72.6548" y="54.7932"/><rect fill="#92afea" height="1.86207" rx=".931035" width="9.31034" x="72.6548" y="58.5173"/><rect fill="#3769d6" height="3.72414" rx="1.86207" width="3.72414" x="72.6548" y="62.2415"/><rect fill="#edf4fe" height="14.8966" rx="2" width="15.8276" x="51.2412" y="40.8276"/><rect fill="#3769d6" height=".931035" rx=".465517" width="1.86207" x="53.103" y="45.4827"/><rect fill="#3769d6" height=".931035" rx=".465517" width="1.86207" x="53.103" y="47.3447"/><rect fill="#3769d6" height=".931035" rx=".465517" width="1.86207" x="53.103" y="49.2068"/><rect fill="#3769d6" height=".931035" rx=".465517" width="1.86207" x="53.103" y="51.0688"/><rect fill="#3769d6" height=".931035" rx=".465517" width="1.86207" x="53.103" y="52.9312"/><g fill="#92afea"><rect height=".931035" rx=".465517" width="2.7931" x="55.8965" y="45.4827"/><rect height=".931035" rx=".465517" width="4.65517" x="59.6206" y="45.4827"/><rect height=".931035" rx=".465517" width="5.58621" x="55.8965" y="47.3447"/><rect height=".931035" rx=".465517" width="1.86207" x="62.4136" y="47.3447"/><rect height=".931035" rx=".465517" width="1.86207" x="55.8965" y="49.2068"/><rect height=".931035" rx=".465517" width="5.58621" x="58.6895" y="49.2068"/><rect height=".931035" rx=".465517" width="2.7931" x="55.8965" y="51.0688"/><rect height=".931035" rx=".465517" width="4.65517" x="59.6206" y="51.0688"/><rect height=".931035" rx=".465517" width=".931035" x="55.8965" y="52.9312"/><rect height=".931035" rx=".465517" width="6.51724" x="57.7588" y="52.9312"/><path d="m51.2412 42.8276c0-1.1045.8954-2 2-2h11.8276c1.1046 0 2 .8955 2 2v.7931h-15.8276z"/></g></g><g filter="url(#b)"><circle cx="256.534" cy="89.7069" fill="#3769d6" r="20.0172"/></g><rect fill="#edf4fe" height="15.8276" rx="2" width="15.8276" x="248.621" y="81.7932"/><rect fill="#3769d6" height=".931035" rx=".465517" width="1.86207" x="250.482" y="86.4482"/><rect fill="#3769d6" height=".931035" rx=".465517" width="1.86207" x="250.482" y="88.3103"/><rect fill="#3769d6" height=".931035" rx=".465517" width="1.86207" x="250.482" y="90.1724"/><rect fill="#3769d6" height=".931035" rx=".465517" width="1.86207" x="250.482" y="92.0344"/><rect fill="#3769d6" height=".931035" rx=".465517" width="1.86207" x="250.482" y="93.8965"/><g fill="#92afea"><rect height=".931035" rx=".465517" width="2.7931" x="253.276" y="86.4482"/><rect height=".931035" rx=".465517" width="4.65517" x="257.931" y="86.4482"/><rect height=".931035" rx=".465517" width="5.58621" x="253.276" y="88.3103"/><rect height=".931035" rx=".465517" width="1.86207" x="260.724" y="88.3103"/><rect height=".931035" rx=".465517" width="1.86207" x="253.276" y="90.1724"/><rect height=".931035" rx=".465517" width="5.58621" x="257" y="90.1724"/><rect height=".931035" rx=".465517" width="2.7931" x="253.276" y="92.0344"/><rect height=".931035" rx=".465517" width="4.65517" x="257.931" y="92.0344"/><rect height=".931035" rx=".465517" width=".931035" x="253.276" y="93.8965"/><rect height=".931035" rx=".465517" width="6.51724" x="255.138" y="93.8965"/><path d="m248.621 83.7932c0-1.1046.895-2 2-2h11.827c1.105 0 2 .8954 2 2v.7931h-15.827z"/></g><g filter="url(#c)"><circle cx="175.069" cy="43.6208" fill="#3769d6" r="13.9655"/></g><rect fill="#edf4fe" height="14.8966" rx="2" width="11.1724" x="169.483" y="36.1724"/><rect fill="#92afea" height="1.86207" rx=".931035" width="7.44828" x="171.345" y="38.0344"/><rect fill="#92afea" height="1.86207" rx=".931035" width="7.44828" x="171.345" y="40.8276"/><rect fill="#92afea" height="1.86207" rx=".931035" width="7.44828" x="171.345" y="43.6206"/><rect fill="#3769d6" height="2.7931" rx="1.39655" width="2.7931" x="171.345" y="46.4138"/><g filter="url(#d)"><circle cx="127.121" cy="107.396" fill="#3769d6" r="17.2241"/></g><rect fill="#edf4fe" height="15.8276" rx="2" width="15.8276" x="119.207" y="99.4827"/><rect fill="#3769d6" height="3.72414" rx="1" width="12.1034" x="121.069" y="105.069"/><rect fill="#3769d6" height="2.7931" rx="1" width="2.7931" x="121.069" y="110.655"/><rect fill="#92afea" height="2.7931" rx="1" width="2.7931" x="125.725" y="110.655"/><rect fill="#3769d6" height="2.7931" rx="1" width="2.7931" x="130.379" y="110.655"/><path d="m119.207 101.483c0-1.105.895-2.0003 2-2.0003h11.828c1.104 0 2 .8953 2 2.0003v.793h-15.828z" fill="#92afea"/></svg>