<svg fill="none" height="31" viewBox="0 0 32 31" width="32" xmlns="http://www.w3.org/2000/svg"><ellipse cx="18.75" cy="12.9633" fill="#fff" rx="12.75" ry="12.777"/><path d="m9 29.4949c4.1451 0 7.5-3.3665 7.5-7.5127s-3.3549-7.5127-7.5-7.5127c-4.14513 0-7.5 3.3665-7.5 7.5127s3.35487 7.5127 7.5 7.5127z" fill="#9eb9f0" stroke="#3469da" stroke-width="3"/><path d="m5.7255 21.5149h.85422c0-.1179.01047-.2358.0314-.3537.02513-.1221.06491-.2315.11934-.3284.05444-.101.12562-.181.21356-.24.09212-.0631.20308-.0947.33289-.0947.19262 0 .34965.061.47108.1831.12562.1179.18843.2842.18843.499 0 .1347-.03141.2547-.09422.36-.05862.1053-.13399.2-.22611.2842-.08794.0842-.18634.1621-.29521.2337-.10887.0674-.21146.1347-.30777.2021-.18843.1305-.36849.259-.54017.3853-.16749.1263-.31405.2652-.43967.4168-.12562.1474-.22612.3158-.30149.5053-.07119.1895-.10678.4126-.10678.6695h3.22845v-.7706h-2.07902c.10887-.1515.23449-.2842.37686-.3979s.28893-.2189.43967-.3158c.15075-.101.2994-.2021.44596-.3031.15074-.1011.28474-.2127.40198-.3348.11725-.1263.21146-.2694.28265-.4294.07118-.16.10678-.3516.10678-.5748 0-.2147-.04188-.4084-.12562-.581-.07956-.1727-.18844-.3179-.32662-.4358s-.29939-.2085-.48364-.2716c-.18005-.0632-.37058-.0948-.57157-.0948-.2638 0-.4983.0464-.70348.139-.20099.0884-.36848.2147-.50248.3789-.13399.16-.23449.3495-.30149.5685-.067.2147-.09631.4484-.08793.701z" fill="#fff"/><path d="m10.9429 20.9402v1.5347h-1.15569l1.13689-1.5347zm0 2.2737v1.0232h.848v-1.0232h.5841v-.739h-.5841v-2.6589h-.7977l-1.90946 2.5768v.8211z" fill="#fff"/><path d="m18 5.07153v8.64327h5.625" stroke="#4076e4" stroke-linecap="round" stroke-linejoin="round" stroke-width="4"/></svg>