<svg fill="none" height="64" viewBox="0 0 300 64" width="300" xmlns="http://www.w3.org/2000/svg"><path clip-rule="evenodd" d="m30.4332 0h1.7472c1.3644 0 2.4642 1.1097 2.4642 2.47927v58.46303c0 1.3766-1.1068 2.4863-2.4642 2.4863h-1.7472c-1.3643 0-2.4641-1.1167-2.4641-2.4863v-58.45601c0-1.37659 1.1068-2.48629 2.4641-2.48629zm185.6948 17.4042c-1.489-1.3977-3.083-2.3107-5.589-2.3107-3.411 0-5.277 2.1983-5.277 5.9137v1.0535h11.771v5.3729h-11.771v17.1021h-6.174v-23.5355c0-6.6582 4.685-11.76426 11.339-11.76426 3.62 0 6.446 1.39766 9.001 3.81376zm11.66-8.11243h-6.175v35.24353h6.175zm-144.2297 4.10903h6.592v24.9192h13.8107v6.2157h-13.8107-6.592v-6.2157zm36.3427 5.2395c-7.719 0-13.629 5.9137-13.629 13.485 0 7.7889 5.541 13.4849 14.485 13.4849 3.94 0 7.992-1.6154 10.651-3.8137l-2.771-4.6776c-1.545 1.2923-4.636 2.6338-7.719 2.6338-4.191 0-7.149-2.0157-8.124-5.2114h20.208v-2.416c0-7.5783-5.43-13.485-13.101-13.485zm0 5.6398c3.578 0 5.917 2.0508 6.745 5.1552h-13.824c.905-3.1325 3.46-5.1552 7.079-5.1552zm32.006-5.5344c-5.429 0-11.555 2.3669-14.429 5.3729v20.3609h6.174v-17.6007c1.991-1.3976 4.434-2.1702 6.975-2.1702 3.41 0 5.269 1.8261 5.269 5.3167v14.4542h6.181v-16.0625c0-6.1807-3.724-9.6713-10.17-9.6713zm94.731.1051c-7.776 0-13.79 5.9137-13.79 13.485 0 7.5783 6.014 13.485 13.79 13.485 7.775 0 13.789-5.9137 13.789-13.485.007-7.5713-6.014-13.485-13.789-13.485zm0 21.0071c-4.205 0-7.455-3.28-7.455-7.5221 0-4.2422 3.25-7.5221 7.455-7.5221 4.204 0 7.455 3.2799 7.455 7.5221 0 4.2492-3.244 7.5221-7.455 7.5221zm41.856-5.6538 5.06-14.8124h6.446l-9.056 25.3616h-4.309l-6.049-16.2382-6.042 16.2382h-4.316l-9.049-25.3616h6.446l5.061 14.8124 5.373-14.8124h5.061zm-101.337-13.4361c-2.005-1.215-4.559-2.0789-7.935-2.0789-7.351 0-12.781 5.8576-12.781 13.4358 0 7.5783 5.486 13.4358 12.836 13.4358 5.91 0 11.186-2.3107 14.061-5.3167v-30.95223h-6.174v11.47623zm-14.374 11.3569c0-4.2421 3.195-7.5221 7.671-7.5221 2.854 0 4.998.878 6.71 2.3459v10.5983c-1.803 1.3485-3.94 2.107-6.71 2.107-4.476-.007-7.671-3.2869-7.671-7.5291zm-126.9316-18.7241h-1.7472c-1.3573 0-2.4641 1.1097-2.4641 2.4863v31.5071c0 1.3696 1.0998 2.4863 2.4641 2.4863h1.7472c1.3574 0 2.4642-1.1097 2.4642-2.4863v-31.5141c-.007-1.3696-1.1068-2.4793-2.4642-2.4793zm-29.0473 0h1.7472c1.3573 0 2.4641 1.1097 2.4641 2.4793v31.5141c0 1.3766-1.1068 2.4863-2.4641 2.4863h-1.7472c-1.3643 0-2.4642-1.1167-2.4642-2.4863v-31.5071c0-1.3766 1.1068-2.4863 2.4642-2.4863zm41.3056 22.9172c2.5065 0 4.5385-2.0502 4.5385-4.5792 0-2.5291-2.032-4.5793-4.5385-4.5793-2.5066 0-4.5385 2.0502-4.5385 4.5793 0 2.529 2.0319 4.5792 4.5385 4.5792zm-49.03271-4.5792c0 2.529-2.03195 4.5792-4.5385 4.5792-2.50654 0-4.53849-2.0502-4.53849-4.5792 0-2.5291 2.03195-4.5793 4.53849-4.5793 2.50655 0 4.5385 2.0502 4.5385 4.5793z" fill="#f59d1b" fill-rule="evenodd"/></svg>